<?xml version="1.0" encoding="UTF-8" standalone="no"?>
<!DOCTYPE svg PUBLIC "-//W3C//DTD SVG 1.1//EN"
 "http://www.w3.org/Graphics/SVG/1.1/DTD/svg11.dtd">
<!-- Generated by graphviz version 2.43.0 (0)
 -->
<!-- Title: Tree Pages: 1 -->
<svg width="469pt" height="433pt"
 viewBox="0.00 0.00 469.00 433.00" xmlns="http://www.w3.org/2000/svg" xmlns:xlink="http://www.w3.org/1999/xlink">
<g id="graph0" class="graph" transform="scale(1 1) rotate(0) translate(4 429)">
<title>Tree</title>
<polygon fill="white" stroke="transparent" points="-4,4 -4,-429 465,-429 465,4 -4,4"/>
<!-- 0 -->
<g id="node1" class="node">
<title>0</title>
<polygon fill="#ebf5fc" stroke="black" points="359,-425 196,-425 196,-342 359,-342 359,-425"/>
<text text-anchor="middle" x="277.5" y="-409.8" font-family="Times,serif" font-size="14.00">Lunch Bill &lt;= 4.775</text>
<text text-anchor="middle" x="277.5" y="-394.8" font-family="Times,serif" font-size="14.00">gini = 0.499</text>
<text text-anchor="middle" x="277.5" y="-379.8" font-family="Times,serif" font-size="14.00">samples = 19</text>
<text text-anchor="middle" x="277.5" y="-364.8" font-family="Times,serif" font-size="14.00">value = [9, 10]</text>
<text text-anchor="middle" x="277.5" y="-349.8" font-family="Times,serif" font-size="14.00">class = WatchTV_No</text>
</g>
<!-- 1 -->
<g id="node2" class="node">
<title>1</title>
<polygon fill="#e88f4f" stroke="black" points="279.5,-306 71.5,-306 71.5,-223 279.5,-223 279.5,-306"/>
<text text-anchor="middle" x="175.5" y="-290.8" font-family="Times,serif" font-size="14.00">DayOfWeek_Friday &lt;= 0.5</text>
<text text-anchor="middle" x="175.5" y="-275.8" font-family="Times,serif" font-size="14.00">gini = 0.18</text>
<text text-anchor="middle" x="175.5" y="-260.8" font-family="Times,serif" font-size="14.00">samples = 10</text>
<text text-anchor="middle" x="175.5" y="-245.8" font-family="Times,serif" font-size="14.00">value = [9, 1]</text>
<text text-anchor="middle" x="175.5" y="-230.8" font-family="Times,serif" font-size="14.00">class = WatchTV_Yes</text>
</g>
<!-- 0&#45;&gt;1 -->
<g id="edge1" class="edge">
<title>0&#45;&gt;1</title>
<path fill="none" stroke="black" d="M242.11,-341.91C234.2,-332.83 225.73,-323.12 217.58,-313.77"/>
<polygon fill="black" stroke="black" points="220.04,-311.26 210.83,-306.02 214.76,-315.86 220.04,-311.26"/>
<text text-anchor="middle" x="209.12" y="-327.26" font-family="Times,serif" font-size="14.00">True</text>
</g>
<!-- 6 -->
<g id="node7" class="node">
<title>6</title>
<polygon fill="#399de5" stroke="black" points="461,-298.5 298,-298.5 298,-230.5 461,-230.5 461,-298.5"/>
<text text-anchor="middle" x="379.5" y="-283.3" font-family="Times,serif" font-size="14.00">gini = 0.0</text>
<text text-anchor="middle" x="379.5" y="-268.3" font-family="Times,serif" font-size="14.00">samples = 9</text>
<text text-anchor="middle" x="379.5" y="-253.3" font-family="Times,serif" font-size="14.00">value = [0, 9]</text>
<text text-anchor="middle" x="379.5" y="-238.3" font-family="Times,serif" font-size="14.00">class = WatchTV_No</text>
</g>
<!-- 0&#45;&gt;6 -->
<g id="edge6" class="edge">
<title>0&#45;&gt;6</title>
<path fill="none" stroke="black" d="M312.89,-341.91C322.89,-330.43 333.78,-317.94 343.81,-306.44"/>
<polygon fill="black" stroke="black" points="346.65,-308.5 350.59,-298.67 341.38,-303.9 346.65,-308.5"/>
<text text-anchor="middle" x="352.29" y="-319.91" font-family="Times,serif" font-size="14.00">False</text>
</g>
<!-- 2 -->
<g id="node3" class="node">
<title>2</title>
<polygon fill="#e58139" stroke="black" points="167,-179.5 0,-179.5 0,-111.5 167,-111.5 167,-179.5"/>
<text text-anchor="middle" x="83.5" y="-164.3" font-family="Times,serif" font-size="14.00">gini = 0.0</text>
<text text-anchor="middle" x="83.5" y="-149.3" font-family="Times,serif" font-size="14.00">samples = 8</text>
<text text-anchor="middle" x="83.5" y="-134.3" font-family="Times,serif" font-size="14.00">value = [8, 0]</text>
<text text-anchor="middle" x="83.5" y="-119.3" font-family="Times,serif" font-size="14.00">class = WatchTV_Yes</text>
</g>
<!-- 1&#45;&gt;2 -->
<g id="edge2" class="edge">
<title>1&#45;&gt;2</title>
<path fill="none" stroke="black" d="M143.58,-222.91C134.64,-211.54 124.92,-199.18 115.95,-187.77"/>
<polygon fill="black" stroke="black" points="118.51,-185.36 109.58,-179.67 113.01,-189.69 118.51,-185.36"/>
</g>
<!-- 3 -->
<g id="node4" class="node">
<title>3</title>
<polygon fill="#ffffff" stroke="black" points="352,-187 185,-187 185,-104 352,-104 352,-187"/>
<text text-anchor="middle" x="268.5" y="-171.8" font-family="Times,serif" font-size="14.00">10AM &lt;= 4.5</text>
<text text-anchor="middle" x="268.5" y="-156.8" font-family="Times,serif" font-size="14.00">gini = 0.5</text>
<text text-anchor="middle" x="268.5" y="-141.8" font-family="Times,serif" font-size="14.00">samples = 2</text>
<text text-anchor="middle" x="268.5" y="-126.8" font-family="Times,serif" font-size="14.00">value = [1, 1]</text>
<text text-anchor="middle" x="268.5" y="-111.8" font-family="Times,serif" font-size="14.00">class = WatchTV_Yes</text>
</g>
<!-- 1&#45;&gt;3 -->
<g id="edge3" class="edge">
<title>1&#45;&gt;3</title>
<path fill="none" stroke="black" d="M207.77,-222.91C214.91,-213.92 222.54,-204.32 229.91,-195.05"/>
<polygon fill="black" stroke="black" points="232.81,-197.03 236.29,-187.02 227.33,-192.67 232.81,-197.03"/>
</g>
<!-- 4 -->
<g id="node5" class="node">
<title>4</title>
<polygon fill="#e58139" stroke="black" points="260,-68 93,-68 93,0 260,0 260,-68"/>
<text text-anchor="middle" x="176.5" y="-52.8" font-family="Times,serif" font-size="14.00">gini = 0.0</text>
<text text-anchor="middle" x="176.5" y="-37.8" font-family="Times,serif" font-size="14.00">samples = 1</text>
<text text-anchor="middle" x="176.5" y="-22.8" font-family="Times,serif" font-size="14.00">value = [1, 0]</text>
<text text-anchor="middle" x="176.5" y="-7.8" font-family="Times,serif" font-size="14.00">class = WatchTV_Yes</text>
</g>
<!-- 3&#45;&gt;4 -->
<g id="edge4" class="edge">
<title>3&#45;&gt;4</title>
<path fill="none" stroke="black" d="M234.24,-103.73C226.66,-94.7 218.61,-85.12 211.02,-76.08"/>
<polygon fill="black" stroke="black" points="213.59,-73.7 204.48,-68.3 208.23,-78.21 213.59,-73.7"/>
</g>
<!-- 5 -->
<g id="node6" class="node">
<title>5</title>
<polygon fill="#399de5" stroke="black" points="441,-68 278,-68 278,0 441,0 441,-68"/>
<text text-anchor="middle" x="359.5" y="-52.8" font-family="Times,serif" font-size="14.00">gini = 0.0</text>
<text text-anchor="middle" x="359.5" y="-37.8" font-family="Times,serif" font-size="14.00">samples = 1</text>
<text text-anchor="middle" x="359.5" y="-22.8" font-family="Times,serif" font-size="14.00">value = [0, 1]</text>
<text text-anchor="middle" x="359.5" y="-7.8" font-family="Times,serif" font-size="14.00">class = WatchTV_No</text>
</g>
<!-- 3&#45;&gt;5 -->
<g id="edge5" class="edge">
<title>3&#45;&gt;5</title>
<path fill="none" stroke="black" d="M302.39,-103.73C309.89,-94.7 317.84,-85.12 325.36,-76.08"/>
<polygon fill="black" stroke="black" points="328.13,-78.23 331.83,-68.3 322.74,-73.75 328.13,-78.23"/>
</g>
</g>
</svg>
